<svg width="143" height="42" viewBox="0 0 143 42" fill="none" xmlns="http://www.w3.org/2000/svg">
<g clip-path="url(#clip0_4_94)">
<path d="M137.2 41.5H5.8C5.11709 41.5133 4.43826 41.3918 3.80229 41.1427C3.16632 40.8936 2.58566 40.5216 2.09348 40.048C1.6013 39.5744 1.20725 39.0084 0.93384 38.3825C0.660427 37.7566 0.513007 37.0829 0.5 36.4V5.6C0.5 2.8 2.9 0.5 5.8 0.5H137.3C140.2 0.5 142.6 2.8 142.6 5.6V36.4C142.523 37.7795 141.921 39.0772 140.916 40.0259C139.912 40.9746 138.582 41.5021 137.2 41.5Z" fill="#283139"/>
<path d="M137.2 41.5H5.8C5.11709 41.5133 4.43826 41.3918 3.80229 41.1427C3.16632 40.8936 2.58566 40.5216 2.09348 40.048C1.6013 39.5744 1.20725 39.0084 0.93384 38.3825C0.660427 37.7566 0.513007 37.0829 0.5 36.4V5.6C0.5 2.8 2.9 0.5 5.8 0.5H137.3C140.2 0.5 142.6 2.8 142.6 5.6V36.4C142.523 37.7795 141.921 39.0772 140.916 40.0259C139.912 40.9746 138.582 41.5021 137.2 41.5Z" fill="black" fill-opacity="0.3"/>
<path d="M137.6 1C140 1 142 3 142 5.4V36.7C142 39.1 140 41.1 137.6 41.1H5.4C4.23209 41.0494 3.12725 40.5561 2.30997 39.7202C1.4927 38.8844 1.02432 37.7687 1 36.6V5.4C1 3 3 1 5.4 1H137.6ZM137.7 8.40926e-08H5.3C3.91151 -0.000247088 2.57837 0.544396 1.58725 1.51681C0.596133 2.48923 0.0261979 3.81176 0 5.2L0 36.7C0 39.6 2.4 42 5.3 42H137.7C140.6 42 143 39.6 143 36.8V5.2C143 2.4 140.6 8.40926e-08 137.7 8.40926e-08Z" fill="#A6A6A6"/>
<path d="M50.2 11.1C50.2 12 49.9 12.7 49.4 13.2C48.8 13.8 48 14.1 47.1 14.1C46.2418 14.1003 45.4173 13.7664 44.8012 13.169C44.1851 12.5716 43.826 11.7577 43.8 10.9C43.8 9.99995 44.1 9.19995 44.8 8.59995C45.4 7.99995 46.2 7.69995 47.1 7.69995C47.6 7.69995 48 7.79995 48.4 7.99995L49.4 8.69995L48.8 9.19995C48.4 8.69995 47.8 8.49995 47.1 8.49995C46.4 8.49995 45.9 8.69995 45.4 9.19995C44.9 9.69995 44.7 10.3 44.7 11C44.6865 11.3234 44.7386 11.6463 44.8532 11.9491C44.9677 12.252 45.1424 12.5285 45.3666 12.762C45.5908 12.9956 45.86 13.1814 46.1578 13.3082C46.4557 13.435 46.7762 13.5002 47.1 13.5C47.8 13.5 48.4 13.3 48.9 12.8C49.2 12.5 49.4 12.1 49.4 11.5H47.1V10.7H50.2V11.1ZM55.1 8.49995H52.2V10.5H54.8V11.3H52.2V13.3H55.1V14H51.4V7.79995H55.1V8.49995ZM58.5 14H57.7V8.49995H56V7.79995H60.4V8.59995H58.6V14H58.5ZM63.5 14V7.79995H64.3V14H63.5ZM67.9 14H67.1V8.49995H65.3V7.79995H69.7V8.59995H67.9V14ZM78 13.2C77.4 13.8 76.6 14.1 75.7 14.1C74.8 14.1 74 13.8 73.4 13.2C72.8 12.6 72.5 11.8 72.5 10.9C72.5 9.99995 72.8 9.19995 73.4 8.59995C74 7.99995 74.8 7.69995 75.7 7.69995C76.6 7.69995 77.4 7.99995 78 8.59995C78.6 9.19995 78.9 9.99995 78.9 10.9C78.9 11.8 78.6 12.6 78 13.2ZM73.9 12.7C74.4 13.2 74.9 13.4 75.6 13.4C76.3 13.4 76.9 13.2 77.3 12.7C77.8 12.2 78 11.6 78 10.9C78 10.2 77.8 9.59995 77.3 9.09995C76.8 8.59995 76.3 8.39995 75.6 8.39995C74.9 8.39995 74.3 8.59995 73.9 9.09995C73.4 9.59995 73.2 10.2 73.2 10.9C73.2 11.6 73.4 12.2 73.9 12.7ZM80.1 14V7.79995H81.1L84.2 12.6V7.79995H85V14H84.1L80.9 8.89995V14H80.1Z" fill="white" stroke="white" stroke-width="0.7"/>
<path d="M72.2 23.1C71.033 23.1 69.9139 23.5636 69.0887 24.3888C68.2635 25.2139 67.8 26.3331 67.8 27.5C67.8 28.667 68.2635 29.7862 69.0887 30.6113C69.9139 31.4365 71.033 31.9 72.2 31.9C74.7 31.9 76.7 30 76.7 27.5C76.7 24.9 74.7 23.1 72.2 23.1ZM72.2 30.2C70.8 30.2 69.7 29.1 69.7 27.5C69.7 25.9 70.9 24.8 72.2 24.8C73.6 24.8 74.7 25.9 74.7 27.5C74.7 29.1 73.5 30.2 72.2 30.2ZM62.3 23.1C61.133 23.1 60.0139 23.5636 59.1887 24.3888C58.3635 25.2139 57.9 26.3331 57.9 27.5C57.9 28.667 58.3635 29.7862 59.1887 30.6113C60.0139 31.4365 61.133 31.9 62.3 31.9C64.8 31.9 66.8 30 66.8 27.5C66.8 24.9 64.8 23.1 62.3 23.1ZM62.3 30.2C60.9 30.2 59.8 29.1 59.8 27.5C59.8 25.9 61 24.8 62.3 24.8C63.7 24.8 64.8 25.9 64.8 27.5C64.8 29.1 63.7 30.2 62.3 30.2ZM50.6 24.4V26.3H55.2C55.1 27.3 54.7 28.1 54.2 28.7C53.2606 29.6055 52.0046 30.1079 50.7 30.1C47.9 30.1 45.7 27.9 45.7 25.1C45.7 22.3 47.9 20.1 50.7 20.1C51.9564 20.0908 53.1702 20.5549 54.1 21.4L55.5 20.1C54.8686 19.4771 54.1182 18.9877 53.2934 18.6613C52.4687 18.3348 51.5867 18.178 50.7 18.2C46.8 18.2 43.6 21.3 43.6 25.1C43.6 28.9 46.8 32 50.7 32C52.8 32 54.4 31.3 55.6 30.1C56.1659 29.5195 56.6083 28.8303 56.9005 28.0741C57.1927 27.3179 57.3286 26.5103 57.3 25.7L57.2 24.5H50.6V24.4ZM98.6 25.9C98.2 24.9 97.1 23.1 94.7 23.1C92.4 23.1 90.5 24.9 90.5 27.5C90.5 30 92.4 31.9 95 31.9C97.1 31.9 98.3 30.7 98.8 29.9L97.3 28.9C96.8 29.6 96.1 30.1 95.1 30.1C94.1 30.1 93.4 29.6 92.9 28.8L98.9 26.4L98.6 25.9ZM92.4 27.4C92.3 25.7 93.8 24.8 94.8 24.8C95.6 24.8 96.3 25.2 96.5 25.7L92.4 27.4ZM87.5 31.7H89.5V18.7H87.5V31.7ZM84.3 24.1C83.8 23.6 82.9 23.1 81.9 23.1C80.7504 23.1262 79.6568 23.6013 78.8532 24.4236C78.0495 25.2459 77.5997 26.3502 77.6 27.5C77.6 30 79.7 31.9 81.9 31.9C83 31.9 83.8 31.4 84.3 30.9H84.4V31.5C84.4 33.2 83.5 34.1 82 34.1C80.8 34.1 80 33.2 79.7 32.5L78 33.2C78.3243 33.988 78.8806 34.6587 79.595 35.1231C80.3094 35.5875 81.1482 35.8236 82 35.8C84.3 35.8 86.3 34.5 86.3 31.2V23.3H84.4V24.1H84.3ZM82 30.2C80.6 30.2 79.5 29.1 79.5 27.5C79.5 25.9 80.6 24.8 82 24.8C83.3 24.8 84.4 25.9 84.4 27.5C84.4 29.1 83.4 30.2 82 30.2ZM107.9 18.7H103.2V31.7H105.2V26.8H108C110.2 26.8 112.3 25.2 112.3 22.8C112.248 21.6771 111.758 20.6192 110.936 19.8529C110.114 19.0865 109.024 18.6727 107.9 18.7ZM107.9 24.9H105.1V20.4H107.9C109.4 20.4 110.2 21.6 110.2 22.6C110.2 23.7 109.4 24.9 107.9 24.9ZM120.1 23.1C118.7 23.1 117.2 23.7 116.6 25.1L118.4 25.8C118.581 25.4858 118.844 25.2267 119.161 25.0506C119.478 24.8744 119.837 24.7878 120.2 24.8C121.2 24.8 122.3 25.4 122.3 26.5V26.6C121.9 26.4 121.2 26.1 120.2 26.1C118.3 26.1 116.4 27.1 116.4 29C116.4 30.7 117.9 31.9 119.7 31.9C121 31.9 121.8 31.3 122.2 30.6H122.3V31.6H124.2V26.6C124.2 24.4 122.4 23.1 120.1 23.1ZM119.9 30.2C119.3 30.2 118.4 29.9 118.4 29.1C118.4 28.1 119.5 27.7 120.5 27.7C121.4 27.7 121.8 27.9 122.3 28.1C122.207 28.6748 121.916 29.199 121.478 29.5824C121.04 29.9658 120.482 30.1842 119.9 30.2ZM131.1 23.3L128.8 28.9H128.7L126.4 23.3H124.3L127.8 31.2L125.8 35.6H127.9L133.3 23.4H131.1V23.3ZM113.3 31.7H115.3V18.7H113.3V31.7Z" fill="white"/>
<path d="M11.1 8.30005C10.7 8.60005 10.6 9.10005 10.6 9.80005V32.8C10.6 33.4 10.8 33.9 11.1 34.3L11.2 34.4L24.3 21.5V21.2L11.1 8.30005Z" fill="url(#paint0_linear_4_94)"/>
<path d="M28.6 25.7L24.3 21.4V21.1L28.7 16.8L28.8 16.9L33.9 19.7C35.4 20.5 35.4 21.9 33.9 22.7L28.7 25.6L28.6 25.7Z" fill="url(#paint1_linear_4_94)"/>
<path d="M28.7 25.6L24.2 21.2L11 34.2C11.5 34.7 12.3 34.8 13.2 34.3L28.7 25.6Z" fill="url(#paint2_linear_4_94)"/>
<path d="M28.7 16.8001L13.2 8.20006C12.3 7.70006 11.5 7.80006 11 8.30006L24.2 21.2001L28.7 16.8001Z" fill="url(#paint3_linear_4_94)"/>
</g>
<defs>
<linearGradient id="paint0_linear_4_94" x1="22.6634" y1="32.5957" x2="1.39171" y2="26.5699" gradientUnits="userSpaceOnUse">
<stop stop-color="#00A1FF"/>
<stop offset="0.3" stop-color="#00BEFF"/>
<stop offset="0.5" stop-color="#00D2FF"/>
<stop offset="0.8" stop-color="#00DFFF"/>
<stop offset="1" stop-color="#00E3FF"/>
</linearGradient>
<linearGradient id="paint1_linear_4_94" x1="35.6028" y1="20.8604" x2="9.74999" y2="20.8604" gradientUnits="userSpaceOnUse">
<stop stop-color="#FFE000"/>
<stop offset="0.4" stop-color="#FFBD00"/>
<stop offset="0.8" stop-color="#FFA500"/>
<stop offset="1" stop-color="#FF9C00"/>
</linearGradient>
<linearGradient id="paint2_linear_4_94" x1="14.4344" y1="24.762" x2="-1.16323" y2="-2.23247" gradientUnits="userSpaceOnUse">
<stop stop-color="#FF3A44"/>
<stop offset="1" stop-color="#C31162"/>
</linearGradient>
<linearGradient id="paint3_linear_4_94" x1="-3.2536" y1="35.0812" x2="3.90879" y2="22.4381" gradientUnits="userSpaceOnUse">
<stop stop-color="#32A071"/>
<stop offset="0.1" stop-color="#2DA771"/>
<stop offset="0.5" stop-color="#15CF74"/>
<stop offset="0.8" stop-color="#06E775"/>
<stop offset="1" stop-color="#00F076"/>
</linearGradient>
<clipPath id="clip0_4_94">
<rect width="143" height="42" fill="white"/>
</clipPath>
</defs>
</svg>
