<svg width="143" height="42" viewBox="0 0 143 42" fill="none" xmlns="http://www.w3.org/2000/svg">
<g clip-path="url(#clip0_4_108)">
<path d="M137.9 42H5C3.67392 42 2.40215 41.4732 1.46447 40.5356C0.526784 39.5979 0 38.3261 0 37L0 5.00002C0 3.67394 0.526784 2.40217 1.46447 1.46449C2.40215 0.526808 3.67392 2.36104e-05 5 2.36104e-05H137.9C138.565 -0.0132786 139.226 0.106225 139.844 0.351536C140.462 0.596847 141.025 0.963035 141.5 1.42866C141.975 1.89428 142.353 2.44998 142.61 3.06322C142.868 3.67646 143 4.33491 143 5.00002V37C143 37.6651 142.868 38.3236 142.61 38.9368C142.353 39.5501 141.975 40.1058 141.5 40.5714C141.025 41.037 140.462 41.4032 139.844 41.6485C139.226 41.8938 138.565 42.0133 137.9 42Z" fill="#A6A6A6"/>
<path d="M137.9 41H5.1C4.56636 41.0134 4.03544 40.9198 3.53854 40.7247C3.04164 40.5297 2.5888 40.2372 2.2067 39.8644C1.82461 39.4916 1.521 39.0462 1.31376 38.5542C1.10651 38.0623 0.999833 37.5338 1 37V5.00003C0.999833 4.46622 1.10651 3.93778 1.31376 3.44584C1.521 2.9539 1.82461 2.50842 2.2067 2.13565C2.5888 1.76288 3.04164 1.47036 3.53854 1.27532C4.03544 1.08029 4.56636 0.986684 5.1 1.00003H138C140.2 1.00003 142.1 2.80003 142.1 5.00003V37C142 39.2 140.2 41 137.9 41Z" fill="#283139"/>
<path d="M137.9 41H5.1C4.56636 41.0134 4.03544 40.9198 3.53854 40.7247C3.04164 40.5297 2.5888 40.2372 2.2067 39.8644C1.82461 39.4916 1.521 39.0462 1.31376 38.5542C1.10651 38.0623 0.999833 37.5338 1 37V5.00003C0.999833 4.46622 1.10651 3.93778 1.31376 3.44584C1.521 2.9539 1.82461 2.50842 2.2067 2.13565C2.5888 1.76288 3.04164 1.47036 3.53854 1.27532C4.03544 1.08029 4.56636 0.986684 5.1 1.00003H138C140.2 1.00003 142.1 2.80003 142.1 5.00003V37C142 39.2 140.2 41 137.9 41Z" fill="black" fill-opacity="0.3"/>
<path d="M31.9 20.8C31.9 17.4 34.7 15.8 34.8 15.7C34.2546 14.8718 33.5124 14.1917 32.6399 13.7206C31.7674 13.2494 30.7916 13.0018 29.8 13C27.8 12.8 25.7 14.2 24.7 14.2C23.6 14.2 22 13 20.2 13C19.0592 13.0058 17.9421 13.3264 16.9717 13.9262C16.0013 14.5261 15.2152 15.3821 14.7 16.4C12.3 20.5 14.1 26.6 16.4 29.9C17.5 31.5 18.9 33.3 20.6 33.3C22.3 33.2 23 32.2 25 32.2C27.1 32.2 27.7 33.3 29.4 33.2C31.2 33.2 32.4 31.6 33.5 29.9C34.8 28 35.4 26.2 35.4 26.1C35.4 26.1 31.9 24.8 31.9 20.8ZM28.5 10.8C29.0047 10.2105 29.3881 9.52732 29.6283 8.78946C29.8686 8.05159 29.9609 7.27359 29.9 6.5C28.6 6.6 26.9 7.4 25.9 8.5C25 9.5 24.3 11.1 24.5 12.6C26 12.8 27.5 11.9 28.5 10.8Z" fill="white"/>
<path d="M56.7 33.1H54.3L53 29H48.4L47.1 33.1H44.8L49.4 19.1H52.2L56.7 33.1ZM52.6 27.2L51.4 23.6L50.7 21L50 23.6L48.8 27.2H52.6ZM68.4 27.9C68.4602 29.3934 67.961 30.8554 67 32C66.6085 32.4287 66.1285 32.767 65.5932 32.9915C65.0579 33.216 64.4801 33.3213 63.9 33.3C62.6 33.3 61.6 32.8 61 31.9V37.2H58.7V26.3L58.6 23H60.6L60.7 24.6C61.0553 24.0246 61.5577 23.5544 62.1554 23.238C62.7531 22.9216 63.4244 22.7704 64.1 22.8C65.3 22.8 66.3 23.3 67.1 24.2C67.5548 24.6973 67.9045 25.2814 68.1279 25.9173C68.3513 26.5531 68.4438 27.2275 68.4 27.9ZM66.1 28C66.1 27 65.9 26.2 65.4 25.6C64.9 24.9 64.3 24.6 63.4 24.6C62.8 24.6 62.3 24.8 61.9 25.1C61.4 25.5 61.2 25.9 61 26.5L60.9 27.2V28.9C60.9 29.6 61.1 30.2 61.6 30.8C62.1 31.3 62.6 31.6 63.4 31.6C64.2 31.6 64.9 31.3 65.4 30.6C65.8667 29.8137 66.1088 28.9144 66.1 28ZM80 27.9C80.0602 29.3934 79.561 30.8554 78.6 32C78.2085 32.4287 77.7285 32.767 77.1932 32.9915C76.6579 33.216 76.0801 33.3213 75.5 33.3C74.2 33.3 73.2 32.8 72.6 31.9V37.2H70.3V26.3L70.2 23H72.2L72.4 24.6C72.7553 24.0246 73.2577 23.5544 73.8554 23.238C74.4531 22.9216 75.1244 22.7704 75.8 22.8C77 22.8 78 23.3 78.8 24.2C79.6 25.1 80 26.4 80 27.9ZM77.7 28C77.7 27 77.5 26.2 77 25.6C76.5 24.9 75.9 24.6 75 24.6C74.4 24.6 73.9 24.8 73.5 25.1C73 25.5 72.8 25.9 72.6 26.5L72.5 27.2V28.9C72.5 29.6 72.7 30.2 73.2 30.8C73.7 31.3 74.2 31.6 75 31.6C75.8 31.6 76.5 31.3 77 30.6C77.5 29.9 77.7 29.1 77.7 28ZM93.1 29.1C93.1 30.3 92.7 31.3 91.9 32C91 32.8 89.7 33.2 88.1 33.2C86.6 33.2 85.4 32.9 84.5 32.3L85 30.4C86 31 87.1 31.3 88.3 31.3C89.1 31.3 89.8 31.1 90.3 30.7C90.8 30.3 91 29.8 91 29.2C91 28.6 90.8 28.2 90.4 27.8C90 27.4 89.4 27.1 88.5 26.7C86 25.8 84.8 24.5 84.8 22.7C84.8 21.6 85.2 20.6 86.1 19.9C87 19.2 88.1 18.8 89.5 18.8C90.8 18.8 91.8 19 92.7 19.5L92.1 21.3C91.259 20.8925 90.3344 20.687 89.4 20.7C88.6 20.7 88 20.9 87.5 21.3C87.1 21.6 86.9 22.1 86.9 22.6C86.9 23.2 87.1 23.6 87.5 24L89.5 25.1C90.5189 25.4513 91.4429 26.0331 92.2 26.8C92.8 27.4 93.1 28.2 93.1 29.1ZM100.5 24.7H98V29.6C98 30.8 98.4 31.5 99.3 31.5L100.3 31.4L100.4 33.1C100 33.3 99.4 33.3 98.6 33.3C97.7 33.3 97 33 96.5 32.5C96 32 95.7 31.1 95.7 29.8V24.7H94.4V23H95.9V21.2L98.1 20.5V23H100.6V24.7H100.5ZM111.7 27.9C111.7 29.4 111.3 30.7 110.4 31.7C109.5 32.7 108.2 33.2 106.7 33.2C105.2 33.2 104 32.7 103.1 31.7C102.2 30.7 101.8 29.5 101.8 28C101.8 26.4 102.3 25.2 103.2 24.2C104.1 23.2 105.3 22.7 106.9 22.7C108.4 22.7 109.6 23.2 110.5 24.2C111.3 25.2 111.7 26.4 111.7 27.9ZM109.4 28C109.4 27.1 109.2 26.3 108.8 25.6C108.3 24.8 107.7 24.4 106.8 24.4C105.9 24.4 105.2 24.8 104.7 25.6C104.3 26.3 104.1 27.1 104.1 28C104.1 28.9 104.3 29.7 104.7 30.4C105.2 31.2 105.9 31.6 106.7 31.6C107.6 31.6 108.2 31.2 108.7 30.4C109.2 29.8 109.4 28.9 109.4 28ZM119.1 25L118.4 24.9C118.047 24.8776 117.695 24.9491 117.379 25.1072C117.062 25.2653 116.794 25.5043 116.6 25.8C116.2 26.3 116 27 116 27.8V33.1H113.7V26.2L113.6 23H115.6L115.7 24.9H115.8C115.979 24.2595 116.366 23.6967 116.9 23.3C117.4 22.9 117.9 22.8 118.5 22.8H119.1V25ZM129.2 27.6L129.1 28.6H122.3C122.291 29.0329 122.375 29.4625 122.548 29.8596C122.721 30.2566 122.977 30.6115 123.3 30.9C123.9 31.4 124.6 31.6 125.5 31.6C126.5 31.6 127.4 31.4 128.2 31.1L128.6 32.7C127.516 33.1176 126.361 33.3213 125.2 33.3C124.52 33.3306 123.842 33.2223 123.206 32.9815C122.569 32.7408 121.989 32.3728 121.5 31.9C121.045 31.4028 120.695 30.8187 120.472 30.1828C120.249 29.547 120.156 28.8726 120.2 28.2C120.2 26.7 120.6 25.4 121.5 24.4C121.919 23.8798 122.453 23.4644 123.061 23.1866C123.669 22.9089 124.332 22.7766 125 22.8C126.5 22.8 127.6 23.3 128.3 24.4C128.9 25.2 129.2 26.3 129.2 27.6ZM127 27C127.038 26.4063 126.899 25.8145 126.6 25.3C126.406 25.0043 126.138 24.7653 125.821 24.6072C125.505 24.4491 125.153 24.3776 124.8 24.4C124.1 24.4 123.5 24.7 123 25.3C122.6 25.8 122.4 26.4 122.3 27H127Z" fill="white"/>
<path d="M51.9 10.4999C51.9 11.6999 51.5 12.6999 50.8 13.2999C50.1 13.8999 49.1 14.1999 47.8 14.1999L46.2 14.0999V7.2999L48.1 7.1999C49.3 7.1999 50.2 7.4999 50.8 7.9999C51.6 8.5999 51.9 9.3999 51.9 10.4999ZM50.7 10.4999C50.7 9.6999 50.5 9.0999 50.1 8.6999C49.7 8.2999 49 8.0999 48.2 8.0999L47.3 8.1999V13.2999H48.1C48.9 13.2999 49.6 13.0999 50.1 12.5999C50.5 12.0999 50.7 11.3999 50.7 10.4999ZM58.1 11.5999C58.1 12.3999 57.9 12.9999 57.4 13.4999C56.9 13.9999 56.3 14.2999 55.6 14.2999C54.9 14.2999 54.3 14.0999 53.9 13.5999C53.4 12.9999 53.2 12.3999 53.2 11.6999C53.2 10.8999 53.4 10.2999 53.9 9.7999C54.3 9.2999 54.9 9.0999 55.7 9.0999C56.4 9.0999 57 9.2999 57.5 9.7999C57.9 10.1999 58.1 10.7999 58.1 11.5999ZM56.9 11.5999C56.9 11.0999 56.8 10.7999 56.6 10.3999C56.4 9.9999 56 9.7999 55.6 9.7999C55.2 9.7999 54.8 9.9999 54.6 10.3999L54.3 11.5999C54.3 12.0999 54.4 12.3999 54.6 12.7999C54.8 13.1999 55.2 13.3999 55.6 13.3999C56 13.3999 56.4 13.1999 56.6 12.7999C56.8 12.4999 56.9 12.0999 56.9 11.5999ZM66.4 9.1999L64.8 14.0999H63.8L63.2 11.9999L62.8 10.3999L62.4 11.9999L61.7 14.0999H60.7L59.2 9.1999H60.3L60.9 11.5999L61.2 13.1999L61.6 11.5999L62.3 9.1999H63.2L63.9 11.4999L64.3 13.0999L64.6 11.4999L65.2 9.1999H66.4ZM72.1 14.0999H71V11.2999C71 10.3999 70.7 9.9999 70 9.9999C69.8448 9.9999 69.6917 10.036 69.5528 10.1055C69.4139 10.1749 69.2932 10.2757 69.2 10.3999C69 10.5999 68.9 10.8999 68.9 11.1999V14.0999H67.8V10.5999V9.1999H68.8L68.9 9.9999L69.5 9.3999C69.8 9.1999 70.1 9.0999 70.5 9.0999C71 9.0999 71.4 9.1999 71.7 9.4999C72.1 9.8999 72.3 10.3999 72.3 11.0999V14.0999H72.1ZM75.2 14.0999H74.1V6.8999H75.2V14.0999ZM81.7 11.5999C81.7 12.3999 81.5 12.9999 81 13.4999C80.5 13.9999 79.9 14.2999 79.2 14.2999C78.5 14.2999 77.9 14.0999 77.5 13.5999C77.1 13.0999 76.8 12.4999 76.8 11.7999C76.8 10.9999 77 10.3999 77.5 9.8999C77.9 9.3999 78.6 9.1999 79.3 9.1999C80 9.1999 80.6 9.3999 81.1 9.8999C81.5 10.1999 81.7 10.7999 81.7 11.5999ZM80.6 11.5999C80.6 11.0999 80.5 10.7999 80.3 10.3999C80.1 9.9999 79.7 9.7999 79.3 9.7999C78.9 9.7999 78.5 9.9999 78.3 10.3999C78.1 10.6999 78 11.0999 78 11.5999C78 12.0999 78.1 12.3999 78.3 12.7999C78.5 13.1999 78.9 13.3999 79.3 13.3999C79.7 13.3999 80.1 13.1999 80.3 12.7999C80.5 12.4999 80.6 12.0999 80.6 11.5999ZM87.1 14.0999H86.1L86 13.4999C85.7 13.9999 85.2 14.1999 84.5 14.1999C84 14.1999 83.6 14.0999 83.4 13.7999C83.1 13.4999 83 13.1999 83 12.7999C83 12.1999 83.3 11.6999 83.8 11.3999C84.441 11.0439 85.1674 10.871 85.9 10.8999V10.7999C85.9 10.0999 85.6 9.7999 84.9 9.7999C84.4333 9.77727 83.9733 9.91879 83.6 10.1999L83.4 9.4999C83.9145 9.20093 84.5062 9.0617 85.1 9.0999C86.4 9.0999 87.1 9.7999 87.1 11.0999V12.8999V14.0999ZM85.9 12.3999V11.5999C84.7 11.5999 84.1 11.8999 84.1 12.5999L84.3 13.1999L84.9 13.3999L85.6 13.1999L86 12.5999L85.9 12.3999ZM93.4 14.0999H92.4L92.3 13.2999C92 13.8999 91.5 14.1999 90.7 14.1999C90.1 14.1999 89.6 13.9999 89.2 13.4999C88.8 12.9999 88.6 12.3999 88.6 11.6999C88.6 10.8999 88.8 10.2999 89.2 9.7999C89.6 9.2999 90.1 9.0999 90.7 9.0999C91.4 9.0999 91.8 9.2999 92.1 9.7999V6.8999H93.2V12.7999L93.4 14.0999ZM92.2 11.9999V11.1999V10.8999L91.8 10.1999C91.6154 10.0115 91.3638 9.90366 91.1 9.8999C90.7 9.8999 90.4 10.0999 90.1 10.3999C89.9 10.6999 89.7 11.0999 89.7 11.6999C89.7 12.1999 89.8 12.5999 90 12.8999C90.2 13.1999 90.6 13.3999 91 13.3999C91.4 13.3999 91.7 13.2999 91.9 12.9999C92.1 12.6999 92.2 12.3999 92.2 11.9999ZM102.9 11.5999C102.9 12.3999 102.7 12.9999 102.2 13.4999C101.7 13.9999 101.1 14.2999 100.4 14.2999C99.7 14.2999 99.1 14.0999 98.7 13.5999C98.3 13.0999 98 12.4999 98 11.7999C98 10.9999 98.2 10.3999 98.7 9.8999C99.1 9.2999 99.7 9.0999 100.5 9.0999C101.2 9.0999 101.8 9.2999 102.3 9.7999C102.6 10.1999 102.9 10.7999 102.9 11.5999ZM101.7 11.5999C101.7 11.0999 101.6 10.7999 101.4 10.3999C101.2 9.9999 100.8 9.7999 100.4 9.7999C100 9.7999 99.6 9.9999 99.4 10.3999C99.2 10.6999 99.1 11.0999 99.1 11.5999C99.1 12.0999 99.2 12.3999 99.4 12.7999C99.6 13.1999 100 13.3999 100.4 13.3999C100.8 13.3999 101.2 13.1999 101.4 12.7999C101.6 12.4999 101.7 12.0999 101.7 11.5999ZM108.8 14.0999H107.7V11.2999C107.7 10.3999 107.4 9.9999 106.7 9.9999C106.545 9.9999 106.392 10.036 106.253 10.1055C106.114 10.1749 105.993 10.2757 105.9 10.3999C105.7 10.5999 105.6 10.8999 105.6 11.1999V14.0999H104.5V10.5999V9.1999H105.5V9.8999L106.1 9.2999C106.4 9.0999 106.7 8.9999 107.1 8.9999C107.6 8.9999 108 9.0999 108.3 9.3999C108.7 9.7999 108.9 10.2999 108.9 10.9999V14.0999H108.8ZM116.3 9.9999H115.1V12.3999C115.1 12.9999 115.3 13.2999 115.7 13.2999L116.2 13.1999V13.9999L115.3 14.0999C114.9 14.0999 114.5 13.9999 114.3 13.6999C114.1 13.3999 113.9 12.9999 113.9 12.3999V9.9999H113.2V9.1999H113.9V8.1999L115 7.8999V9.0999H116.2L116.3 9.9999ZM122.1 14.0999H121V11.2999C121 10.3999 120.7 9.9999 120 9.9999C119.5 9.9999 119.1 10.2999 118.9 10.7999L118.8 11.1999V14.1999H117.7V6.8999H118.8V9.8999C119.1 9.3999 119.6 9.0999 120.3 9.0999C120.8 9.0999 121.1 9.1999 121.4 9.4999C121.8 9.8999 122 10.3999 122 11.1999V14.0999H122.1ZM128.2 11.3999V11.8999H124.9C124.9 12.3999 125.1 12.7999 125.4 12.9999C125.7 13.1999 126 13.2999 126.5 13.2999L127.8 13.0999L128 13.8999C127.5 14.0999 127 14.1999 126.3 14.1999C125.5 14.1999 124.9 13.9999 124.5 13.4999C124.1 12.9999 123.8 12.3999 123.8 11.6999C123.8 10.9999 124 10.2999 124.4 9.7999C124.8 9.2999 125.4 8.9999 126.1 8.9999C126.8 8.9999 127.4 9.2999 127.7 9.7999C128 10.2999 128.2 10.7999 128.2 11.3999ZM127.1 11.0999L126.9 10.2999C126.809 10.1428 126.678 10.0133 126.519 9.92518C126.361 9.8371 126.181 9.7938 126 9.7999C125.6 9.7999 125.3 9.8999 125.1 10.1999C124.9 10.3999 124.8 10.6999 124.8 11.0999H127.1Z" fill="white"/>
</g>
<defs>
<clipPath id="clip0_4_108">
<rect width="143" height="42" fill="white"/>
</clipPath>
</defs>
</svg>
