<svg width="32" height="32" viewBox="0 0 32 32" fill="none" xmlns="http://www.w3.org/2000/svg">
<g clip-path="url(#clip0_31_43)">
<path d="M31.995 8.167C31.995 7.183 31.912 6.203 31.677 5.245C31.255 3.5 30.26 2.167 28.771 1.188C28.005 0.688 27.162 0.381 26.266 0.219C25.5779 0.0986175 24.8814 0.0324143 24.183 0.021C24.131 0.016 24.074 0.005 24.016 0H7.98496C7.78196 0.016 7.57896 0.026 7.37596 0.036C6.38096 0.093 5.39196 0.197 4.45396 0.572C2.67296 1.275 1.38596 2.504 0.635958 4.275C0.375958 4.874 0.244958 5.509 0.151958 6.155C0.073958 6.676 0.031958 7.202 0.016958 7.728C0.016958 7.77 0.00695801 7.811 0.00695801 7.853V24.15L0.037958 24.713C0.105958 25.802 0.245958 26.88 0.704958 27.88C1.56996 29.771 3.02296 31.015 5.01796 31.614C5.57496 31.786 6.15896 31.864 6.74196 31.916C7.48196 31.989 8.22096 31.999 8.96096 31.999H23.669C24.367 31.999 25.065 31.952 25.763 31.864C26.862 31.723 27.893 31.4 28.826 30.786C29.9303 30.0706 30.8011 29.0475 31.331 27.843C31.581 27.28 31.722 26.682 31.826 26.077C31.977 25.176 32.008 24.264 32.008 23.353C32.003 18.29 32.008 13.228 32.003 8.165L31.995 8.167ZM23.432 13.484V21.099C23.432 21.656 23.354 22.203 23.104 22.708C22.719 23.494 22.094 23.989 21.255 24.229C20.7902 24.3622 20.3111 24.4391 19.828 24.458C19.2204 24.4939 18.6209 24.3052 18.1435 23.9277C17.6661 23.5503 17.3442 23.0104 17.239 22.411C17.1426 21.8717 17.2259 21.3156 17.4761 20.8282C17.7263 20.3408 18.1296 19.949 18.624 19.713C19.051 19.505 19.515 19.38 19.978 19.286C20.483 19.177 20.988 19.078 21.488 18.963C21.858 18.88 22.097 18.656 22.17 18.275C22.191 18.192 22.196 18.103 22.196 18.02V10.76C22.1942 10.6772 22.1821 10.5949 22.16 10.515C22.108 10.312 21.962 10.192 21.754 10.202C21.54 10.212 21.332 10.249 21.124 10.291C20.108 10.489 19.093 10.692 18.082 10.9L13.15 11.895C13.129 11.9 13.103 11.911 13.082 11.911C12.712 12.015 12.582 12.182 12.566 12.567C12.561 12.624 12.566 12.682 12.566 12.739C12.561 16.208 12.566 19.677 12.561 23.145C12.561 23.708 12.498 24.26 12.275 24.78C11.905 25.634 11.249 26.171 10.364 26.426C9.89609 26.5622 9.41298 26.6391 8.92596 26.655C7.64996 26.702 6.58696 25.853 6.36896 24.598C6.18096 23.515 6.67596 22.348 7.90496 21.827C8.38396 21.629 8.87896 21.52 9.38396 21.416L10.53 21.182C11.04 21.073 11.306 20.75 11.332 20.229V20.031V8.187C11.332 8.02 11.353 7.854 11.389 7.692C11.483 7.312 11.754 7.093 12.118 7.004C12.457 6.915 12.806 6.853 13.149 6.78C14.128 6.582 15.102 6.384 16.081 6.191L19.107 5.576C20.003 5.399 20.893 5.217 21.789 5.04C22.081 4.983 22.378 4.92 22.674 4.899C23.085 4.863 23.372 5.123 23.414 5.54C23.424 5.639 23.43 5.738 23.43 5.837V13.478L23.432 13.484Z" fill="white" fill-opacity="0.14"/>
</g>
<defs>
<clipPath id="clip0_31_43">
<rect width="32" height="32" fill="white"/>
</clipPath>
</defs>
</svg>
